<svg width="1200" height="630" viewBox="0 0 1200 630" fill="none" xmlns="http://www.w3.org/2000/svg">
  <rect width="1200" height="630" rx="40" fill="#E0F2FE"/>
  <rect x="64" y="64" width="1072" height="502" rx="32" fill="white"/>
  <rect x="116" y="132" width="340" height="38" rx="14" fill="#0F172A"/>
  <rect x="116" y="202" width="236" height="22" rx="10" fill="#38BDF8"/>
  <rect x="116" y="252" width="424" height="22" rx="10" fill="#CBD5E1"/>
  <rect x="116" y="292" width="388" height="22" rx="10" fill="#CBD5E1"/>
  <rect x="116" y="332" width="264" height="22" rx="10" fill="#CBD5E1"/>
  <rect x="692" y="144" width="320" height="56" rx="18" fill="#DBEAFE"/>
  <rect x="692" y="228" width="320" height="56" rx="18" fill="#DCFCE7"/>
  <rect x="692" y="312" width="320" height="56" rx="18" fill="#FDE68A"/>
  <rect x="692" y="396" width="320" height="56" rx="18" fill="#FBCFE8"/>
  <circle cx="602" cy="315" r="86" fill="#0F172A"/>
  <path d="M566 315H640" stroke="#38BDF8" stroke-width="22" stroke-linecap="round"/>
  <path d="M602 279V351" stroke="#38BDF8" stroke-width="22" stroke-linecap="round"/>
  <circle cx="920" cy="520" r="44" fill="#22C55E"/>
  <path d="M899 520L913 534L943 504" stroke="#0F172A" stroke-width="14" stroke-linecap="round" stroke-linejoin="round"/>
</svg>
